<svg viewBox="0 0 20 20" fill="currentColor" xmlns="http://www.w3.org/2000/svg">
  <path d="M10 6C10.4142 6 10.75 6.33579 10.75 6.75C10.75 6.99924 10.6595 8.12524 10.5874 8.98264C11.2939 8.4915 12.2237 7.85012 12.4396 7.7255C12.7983 7.51839 13.257 7.6413 13.4641 8.00002C13.6712 8.35874 13.5483 8.81743 13.1896 9.02454C12.9737 9.14915 11.9533 9.63376 11.1748 10C11.9533 10.3663 12.9737 10.8509 13.1896 10.9755C13.5483 11.1826 13.6712 11.6413 13.4641 12C13.257 12.3587 12.7983 12.4816 12.4396 12.2745C12.2237 12.1499 11.2939 11.5085 10.5874 11.0174C10.6595 11.8748 10.75 13.0008 10.75 13.25C10.75 13.6642 10.4142 14 10 14C9.58579 14 9.25 13.6642 9.25 13.25C9.25 13.0008 9.34051 11.8748 9.41262 11.0174C8.70614 11.5085 7.77626 12.1499 7.56042 12.2745C7.2017 12.4816 6.743 12.3587 6.5359 12C6.32879 11.6413 6.4517 11.1826 6.81042 10.9755C7.02626 10.8509 8.04665 10.3663 8.82523 10C8.04665 9.63376 7.02626 9.14915 6.81042 9.02454C6.4517 8.81743 6.32879 8.35874 6.5359 8.00002C6.743 7.6413 7.2017 7.51839 7.56042 7.7255C7.77626 7.85012 8.70614 8.4915 9.41262 8.98264C9.34052 8.12524 9.25 6.99924 9.25 6.75C9.25 6.33579 9.58579 6 10 6Z" />
</svg>
