<svg viewBox="0 0 24 24" stroke="currentColor" fill="none" xmlns="http://www.w3.org/2000/svg">
<path d="M15 12H11.25M15 15H11.25M15 18H11.25M8.25 18.75H6C5.40326 18.75 4.83097 18.5129 4.40901 18.091C3.98705 17.669 3.75 17.0967 3.75 16.5V6.108C3.75 4.973 4.595 4.01 5.726 3.916C6.10001 3.88498 6.47437 3.85831 6.849 3.836M6.849 3.836C6.78264 4.05109 6.74993 4.27491 6.75 4.5C6.75 4.69891 6.82902 4.88968 6.96967 5.03033C7.11032 5.17098 7.30109 5.25 7.5 5.25H12C12.414 5.25 12.75 4.914 12.75 4.5C12.75 4.269 12.715 4.046 12.65 3.836M6.849 3.836C7.132 2.918 7.988 2.25 9 2.25H10.5C10.9808 2.25011 11.4489 2.40414 11.8357 2.68954C12.2226 2.97493 12.508 3.3767 12.65 3.836M12.65 3.836C13.026 3.859 13.4 3.886 13.774 3.916C14.905 4.01 15.75 4.973 15.75 6.108V8.25M15.75 8.25H19.125C19.746 8.25 20.25 8.754 20.25 9.375V20.625C20.25 21.246 19.746 21.75 19.125 21.75H9.375C8.754 21.75 8.25 21.246 8.25 20.625V9.375C8.25 8.754 8.754 8.25 9.375 8.25H15.75ZM17.25 12H17.242V12.008H17.25V12ZM17.25 15H17.242V15.008H17.25V15ZM17.25 18H17.242V18.008H17.25V18Z" stroke-width="1.5" stroke-linecap="round" stroke-linejoin="round"/>
</svg>
