<svg xmlns="http://www.w3.org/2000/svg" viewBox="0 0 32 32" fill="none" stroke-width="1.5" stroke="currentColor">
  <path d="M6 16C6 18.6522 7.05357 21.1957 8.92893 23.0711C10.8043 24.9464 13.3478 26 16 26C18.6522 26 21.1957 24.9464 23.0711 23.0711C24.9464 21.1957 26 18.6522 26 16M6 16C6 13.3478 7.05357 10.8043 8.92893 8.92894C10.8043 7.05358 13.3478 6.00001 16 6.00001C18.6522 6.00001 21.1957 7.05358 23.0711 8.92894C24.9464 10.8043 26 13.3478 26 16M6 16H4M26 16H28M26 16H16M4.724 20.1027L6.604 19.4187M25.3973 12.5787L27.2773 11.8947M6.808 23.7133L8.34133 22.428M23.6613 9.57201L25.1933 8.28668M10.0013 26.3933L11.0013 24.66M21.0013 7.34001L22.0013 5.60668M13.9173 27.8173L14.264 25.848M17.7373 6.15201L18.084 4.18268M18.084 27.8173L17.7373 25.848M14.264 6.15201L13.9173 4.18268M22 26.392L21 24.66M10 5.60668L16 16M25.192 23.7133L23.66 22.428M8.34133 9.57068L6.808 8.28534M27.2773 20.104L25.3973 19.42M6.60533 12.58L4.72533 11.8947M16.0027 16L11.0027 24.66" stroke-linecap="round" stroke-linejoin="round"/>
</svg>
