<svg fill="currentColor" viewBox="0 0 24 24" xmlns="http://www.w3.org/2000/svg">
<path fill-rule="evenodd" clip-rule="evenodd" d="M10.3102 2.65826C10.4539 2.26307 10.8295 2 11.25 2H12.75C13.1705 2 13.5461 2.26307 13.6898 2.65826L14.4073 4.63144C14.788 4.75574 15.1556 4.90866 15.5077 5.08761L17.4107 4.1995C17.7918 4.02168 18.2434 4.10124 18.5407 4.39858L19.6014 5.45924C19.8987 5.75658 19.9783 6.20818 19.8005 6.58923L18.9124 8.49229C19.0913 8.84434 19.2443 9.21199 19.3686 9.59268L21.3417 10.3102C21.7369 10.4539 22 10.8295 22 11.25V12.75C22 13.1705 21.7369 13.5461 21.3417 13.6898L19.3686 14.4073C19.2443 14.788 19.0913 15.1556 18.9124 15.5077L19.8005 17.4107C19.9783 17.7918 19.8987 18.2434 19.6014 18.5407L18.5407 19.6014C18.2434 19.8987 17.7918 19.9783 17.4107 19.8004L15.5077 18.9124C15.1557 19.0913 14.788 19.2443 14.4073 19.3686L13.6898 21.3417C13.5461 21.7369 13.1705 22 12.75 22H11.25C10.8295 22 10.4539 21.7369 10.3102 21.3417L9.59268 19.3686C9.21199 19.2443 8.84433 19.0913 8.49229 18.9124L6.58925 19.8005C6.20819 19.9783 5.7566 19.8987 5.45926 19.6014L4.3986 18.5407C4.10125 18.2434 4.02169 17.7918 4.19952 17.4107L5.08761 15.5077C4.90866 15.1556 4.75574 14.788 4.63144 14.4073L2.65826 13.6898C2.26307 13.5461 2 13.1705 2 12.75V11.25C2 10.8295 2.26307 10.4539 2.65826 10.3102L4.63144 9.59268C4.75574 9.212 4.90866 8.84436 5.08762 8.49232L4.1995 6.58922C4.02168 6.20816 4.10124 5.75657 4.39858 5.45922L5.45924 4.39856C5.75658 4.10122 6.20818 4.02166 6.58923 4.19949L8.49234 5.0876C8.84437 4.90866 9.21201 4.75574 9.59268 4.63144L10.3102 2.65826ZM12 16.25C14.3472 16.25 16.25 14.3472 16.25 12C16.25 9.65279 14.3472 7.75 12 7.75C9.65279 7.75 7.75 9.65279 7.75 12C7.75 14.3472 9.65279 16.25 12 16.25Z" />
</svg>
