<svg fill="currentColor" viewBox="0 0 24 24" xmlns="http://www.w3.org/2000/svg">
<path d="M18.8741 19.8741C18.2846 20.4636 17.6112 20.986 16.9186 21.365C16.4713 21.6097 15.9957 21.8056 15.5155 21.9121L15.5 16.75C15.5 16.6206 15.5866 16.5 15.75 16.5H20.9155C20.8099 16.9855 20.6124 17.4665 20.365 17.9186C19.986 18.6112 19.4636 19.2846 18.8741 19.8741Z" />
<path fill-rule="evenodd" clip-rule="evenodd" d="M14.4384 15.4384C14.8171 15.0597 15.3335 15 15.75 15H21V3.5C21 2.06482 19.8171 1 18.5 1H5.5C4.08579 1 3 2.08579 3 3.5V19.5C3 20.9142 4.08579 22 5.5 22H14V16.75C14 16.3335 14.0597 15.8171 14.4384 15.4384ZM7.75 6C7.33579 6 7 6.33579 7 6.75C7 7.16421 7.33579 7.5 7.75 7.5H16.25C16.6642 7.5 17 7.16421 17 6.75C17 6.33579 16.6642 6 16.25 6H7.75ZM7.75 9C7.33579 9 7 9.33579 7 9.75C7 10.1642 7.33579 10.5 7.75 10.5H16.25C16.6642 10.5 17 10.1642 17 9.75C17 9.33579 16.6642 9 16.25 9H7.75ZM7.75 12C7.33579 12 7 12.3358 7 12.75C7 13.1642 7.33579 13.5 7.75 13.5H11.25C11.6642 13.5 12 13.1642 12 12.75C12 12.3358 11.6642 12 11.25 12H7.75Z" />
</svg>
