<svg fill="currentColor" viewBox="0 0 24 24" xmlns="http://www.w3.org/2000/svg">
<path fill-rule="evenodd" clip-rule="evenodd" d="M20.25 1.5C20.25 1.08579 19.9142 0.75 19.5 0.75C19.0858 0.75 18.75 1.08579 18.75 1.5V3.75H16.5C16.0858 3.75 15.75 4.08579 15.75 4.5C15.75 4.91421 16.0858 5.25 16.5 5.25H18.75V7.5C18.75 7.91421 19.0858 8.25 19.5 8.25C19.9142 8.25 20.25 7.91421 20.25 7.5V5.25H22.5C22.9142 5.25 23.25 4.91421 23.25 4.5C23.25 4.08579 22.9142 3.75 22.5 3.75H20.25V1.5ZM4.5 2H17.25V2.25H16.5C15.2574 2.25 14.25 3.25736 14.25 4.5C14.25 5.74264 15.2574 6.75 16.5 6.75H17.25V7.5C17.25 8.74264 18.2574 9.75 19.5 9.75C19.6718 9.75 19.8392 9.73073 20 9.69425V16H14.75C14.3335 16 13.8171 16.0597 13.4384 16.4384C13.0597 16.8171 13 17.3335 13 17.75V23H4.5C3.08579 23 2 21.9142 2 20.5V4.5C2 3.08579 3.08579 2 4.5 2ZM6.75 7C6.33579 7 6 7.33579 6 7.75C6 8.16421 6.33579 8.5 6.75 8.5H15.25C15.6642 8.5 16 8.16421 16 7.75C16 7.33579 15.6642 7 15.25 7H6.75ZM6.75 10C6.33579 10 6 10.3358 6 10.75C6 11.1642 6.33579 11.5 6.75 11.5H15.25C15.6642 11.5 16 11.1642 16 10.75C16 10.3358 15.6642 10 15.25 10H6.75ZM6.75 13C6.33579 13 6 13.3358 6 13.75C6 14.1642 6.33579 14.5 6.75 14.5H10.25C10.6642 14.5 11 14.1642 11 13.75C11 13.3358 10.6642 13 10.25 13H6.75ZM17.8741 20.8741C17.2846 21.4636 16.6112 21.986 15.9186 22.365C15.4713 22.6097 14.9957 22.8056 14.5155 22.9121L14.5 17.75C14.5 17.6206 14.5866 17.5 14.75 17.5H19.9155C19.8099 17.9855 19.6124 18.4665 19.365 18.9186C18.986 19.6112 18.4636 20.2846 17.8741 20.8741Z" />
</svg>
