<svg viewBox="0 0 32 32" fill="none" xmlns="http://www.w3.org/2000/svg">
<path id="Line 1" d="M5.32291 26.7245C5.32291 25.3652 6.20379 24.3021 7.73957 24.3021H24.3542C25.5625 24.3021 26.4687 23.3958 26.4687 22.1875V11.2708M5.32291 26.7245C5.32291 18.4643 5.32291 5.57292 5.32291 5.57292M5.32291 26.7245C5.32291 28.675 6.20499 29.1354 7.73957 29.1354H25.2604M5.32291 26.7245V5.57292M5.32291 5.57292C5.32291 4.24375 6.41041 3.15625 7.73957 3.15625H18.3542M11.9687 11.6146H19.2187M11.9687 15.2396H19.2187M26.4687 29.1354H25.2604M25.2604 29.1354V24.1134" stroke="currentColor" stroke-width="1.5" stroke-linecap="round"/>
<path id="Vector 3" d="M25.5 1V8" stroke="currentColor" stroke-width="1.5" stroke-linecap="round"/>
<path id="Vector 4" d="M21.75 4.25H29.25" stroke="currentColor" stroke-width="1.5" stroke-linecap="round"/>
</svg>
