<svg viewBox="0 0 24 24" fill="none" xmlns="http://www.w3.org/2000/svg">
<path d="M2.75 2.75C2.75 1.65 3.65 0.75 4.75 0.75H18.5C19.5 0.75 20.25 1.62034 20.25 2.5V16.5C20.25 17.5 19.5 18.25 18.5 18.25H4.75C3.47901 18.25 2.75 19.1298 2.75 20.2548V2.75Z" fill="currentColor" fill-opacity="0.2"/>
<path d="M2.75 20.2548C2.75 19.1298 3.47901 18.25 4.75 18.25H18.5C19.5 18.25 20.25 17.5 20.25 16.5V2.5C20.25 1.62034 19.5 0.75 18.5 0.75H4.75C3.65 0.75 2.75 1.65 2.75 2.75M2.75 20.2548C2.75 13.4187 2.75 2.75 2.75 2.75M2.75 20.2548C2.75 21.8689 3.48 22.25 4.75 22.25H19.25M2.75 20.2548V2.75M8.25 7.75H14.25M8.25 10.75H14.25M20.25 22.25H19.25M19.25 22.25V18.0938" stroke="currentColor" stroke-width="1.5" stroke-linecap="round"/>
</svg>
