<svg width="24" height="24" viewBox="0 0 24 24" fill="none" xmlns="http://www.w3.org/2000/svg">
<path d="M2.75 21.2548C2.75 20.1298 3.47901 19.25 4.75 19.25H18.5C19.5 19.25 20.25 18.5 20.25 17.5V9.5M2.75 21.2548C2.75 14.4187 2.75 3.75 2.75 3.75M2.75 21.2548C2.75 22.8689 3.48 23.25 4.75 23.25H19.25M2.75 21.2548V3.75M2.75 3.75C2.75 2.65 3.65 1.75 4.75 1.75H13.5M8.25 8.75H14.25M8.25 11.75H14.25M20.25 23.25H19.25M19.25 23.25V19.0938M18.75 0.75V3.75M18.75 6.75V3.75M18.75 3.75H21.75M18.75 3.75H15.75" stroke="currentColor" stroke-width="1.5" stroke-linecap="round"/>
</svg>
