<svg viewBox="0 0 24 24" fill="none" xmlns="http://www.w3.org/2000/svg">
<path d="M5.5 1.75C4.5 1.75 3.75 2.5 3.75 3.5V19.5C3.75 20.5 4.5 21.25 5.5 21.25H14.75V16.75C14.75 16 15 15.75 15.75 15.75H20.25V3.5C20.25 2.5 19.4242 1.75 18.5 1.75H5.5Z" fill="currentColor" fill-opacity="0.2"/>
<path d="M7.75 6.75H16.25M14.75 21.25C17 21.25 20.25 18 20.25 15.75M14.75 21.25H5.5C4.5 21.25 3.75 20.5 3.75 19.5V3.5C3.75 2.5 4.5 1.75 5.5 1.75H18.5C19.4242 1.75 20.25 2.5 20.25 3.5V15.75M14.75 21.25V16.75C14.75 16 15 15.75 15.75 15.75H20.25M7.75 12.75H11.25M7.75 9.75H16.25" stroke="currentColor" stroke-width="1.5" stroke-linecap="round"/>
</svg>
