<svg fill="currentColor" viewBox="0 0 24 24" xmlns="http://www.w3.org/2000/svg">
<path fill-rule="evenodd" clip-rule="evenodd" d="M2.25 5.625C2.25 4.58979 3.08979 3.75 4.125 3.75H19.875C20.9102 3.75 21.75 4.58979 21.75 5.625V18.375C21.75 19.4102 20.9102 20.25 19.875 20.25H4.125C3.08979 20.25 2.25 19.4102 2.25 18.375V5.625ZM10.75 18.75H19.875C20.0818 18.75 20.25 18.5818 20.25 18.375V5.625C20.25 5.41821 20.0818 5.25 19.875 5.25H10.75V18.75ZM4.25 15C4.25 14.5858 4.58579 14.25 5 14.25H8C8.41421 14.25 8.75 14.5858 8.75 15C8.75 15.4142 8.41421 15.75 8 15.75H5C4.58579 15.75 4.25 15.4142 4.25 15ZM5 11.25C4.58579 11.25 4.25 11.5858 4.25 12C4.25 12.4142 4.58579 12.75 5 12.75H8C8.41421 12.75 8.75 12.4142 8.75 12C8.75 11.5858 8.41421 11.25 8 11.25H5ZM4.25 9C4.25 8.58579 4.58579 8.25 5 8.25H8C8.41421 8.25 8.75 8.58579 8.75 9C8.75 9.41421 8.41421 9.75 8 9.75H5C4.58579 9.75 4.25 9.41421 4.25 9Z" />
</svg>
