<svg xmlns="http://www.w3.org/2000/svg" viewBox="0 0 32 32" fill="none" stroke-width="1.5" stroke="currentColor">
  <path d="M21.364 12.464H28.02V12.4626M3.98 26.192V19.536M3.98 19.536H10.636M3.97867 19.536L8.22 23.78C9.58549 25.1455 11.2864 26.1275 13.1517 26.6272C15.017 27.1269 16.9811 27.1267 18.8463 26.6268C20.7116 26.1268 22.4123 25.1445 23.7776 23.7788C25.1429 22.4131 26.1246 20.7121 26.624 18.8466M5.37467 13.1533C5.87409 11.2879 6.85578 9.58685 8.22107 8.22114C9.58635 6.85543 11.2871 5.87321 13.1524 5.37321C15.0176 4.87322 16.9816 4.87307 18.847 5.37279C20.7123 5.87251 22.4132 6.85448 23.7787 8.21998L28.02 12.4626M28.02 5.80798V12.4613" stroke-linecap="round" stroke-linejoin="round"/>
</svg>
