<svg width="24" height="24" viewBox="0 0 24 24" fill="none" xmlns="http://www.w3.org/2000/svg">
<path d="M16 5H14.5M16 19H14.5M6.5 5H5.5C4.5 5 3.75 5.75 3.75 6.75V7.75M9.25 5H11.75M9.25 19H11.75M6.5 19H5.5C4.5 19 3.75 18.25 3.75 17.25V15.75M3.75 10.5V13" stroke="currentColor" stroke-width="1.5" stroke-linecap="round"/>
<path d="M18.2785 2.05364C17.894 1.89981 17.4575 2.08687 17.3036 2.47146C17.1498 2.85604 17.3369 3.29252 17.7215 3.44636L18.2785 2.05364ZM20.7785 3.44636C21.1631 3.29252 21.3502 2.85604 21.1964 2.47146C21.0425 2.08687 20.606 1.89981 20.2215 2.05364L20.7785 3.44636ZM17.7215 20.5536C17.3369 20.7075 17.1498 21.144 17.3036 21.5285C17.4575 21.9131 17.894 22.1002 18.2785 21.9464L17.7215 20.5536ZM20.2215 21.9464C20.606 22.1002 21.0425 21.9131 21.1964 21.5285C21.3502 21.144 21.1631 20.7075 20.7785 20.5536L20.2215 21.9464ZM20 20.75V3.25H18.5V20.75H20ZM19.5285 2.55364L18.2785 2.05364L17.7215 3.44636L18.9715 3.94636L19.5285 2.55364ZM19.5285 3.94636L20.7785 3.44636L20.2215 2.05364L18.9715 2.55364L19.5285 3.94636ZM18.9715 20.0536L17.7215 20.5536L18.2785 21.9464L19.5285 21.4464L18.9715 20.0536ZM18.9715 21.4464L20.2215 21.9464L20.7785 20.5536L19.5285 20.0536L18.9715 21.4464Z" fill="currentColor"/>
<path d="M10.6222 16.6541C10.1383 16.6541 9.70241 16.5679 9.31463 16.3956C8.93016 16.2199 8.62524 15.9614 8.39986 15.62C8.17779 15.2786 8.06676 14.8577 8.06676 14.3572C8.06676 13.9264 8.14631 13.5701 8.3054 13.2884C8.46449 13.0066 8.68158 12.7812 8.95668 12.6122C9.23177 12.4432 9.54167 12.3156 9.88636 12.2294C10.2344 12.1399 10.594 12.0753 10.9652 12.0355C11.4126 11.9891 11.7756 11.9477 12.054 11.9112C12.3324 11.8714 12.5346 11.8118 12.6605 11.7322C12.7898 11.6494 12.8544 11.5218 12.8544 11.3494V11.3196C12.8544 10.9451 12.7434 10.6551 12.5213 10.4496C12.2992 10.2441 11.9794 10.1413 11.5618 10.1413C11.121 10.1413 10.7713 10.2375 10.5128 10.4297C10.2576 10.6219 10.0852 10.849 9.99574 11.1108L8.31534 10.8722C8.44792 10.4081 8.66667 10.0204 8.97159 9.70881C9.27652 9.39394 9.64938 9.15862 10.0902 9.00284C10.531 8.84375 11.0182 8.7642 11.5518 8.7642C11.9197 8.7642 12.286 8.80729 12.6506 8.89347C13.0152 8.97964 13.3482 9.12216 13.6499 9.32102C13.9515 9.51657 14.1934 9.78338 14.3757 10.1214C14.5613 10.4595 14.6541 10.8821 14.6541 11.3892V16.5H12.924V15.451H12.8643C12.755 15.6631 12.6009 15.862 12.402 16.0476C12.2064 16.2299 11.9595 16.3774 11.6612 16.4901C11.3662 16.5994 11.0199 16.6541 10.6222 16.6541ZM11.0895 15.3317C11.4508 15.3317 11.764 15.2604 12.0291 15.1179C12.2943 14.9721 12.4981 14.7798 12.6406 14.5412C12.7865 14.3026 12.8594 14.0424 12.8594 13.7607V12.8608C12.803 12.9072 12.7069 12.9503 12.571 12.9901C12.4384 13.0298 12.2893 13.0646 12.1236 13.0945C11.9579 13.1243 11.7938 13.1508 11.6314 13.174C11.469 13.1972 11.3281 13.2171 11.2088 13.2337C10.9403 13.2701 10.7 13.3298 10.4879 13.4126C10.2758 13.4955 10.1084 13.6115 9.9858 13.7607C9.86316 13.9065 9.80185 14.0954 9.80185 14.3274C9.80185 14.6589 9.92282 14.9091 10.1648 15.0781C10.4067 15.2472 10.715 15.3317 11.0895 15.3317Z" fill="currentColor"/>
</svg>
