<svg width="24" height="24" viewBox="0 0 24 24" fill="none" xmlns="http://www.w3.org/2000/svg">
<path fill-rule="evenodd" clip-rule="evenodd" d="M17.3036 2.47147C17.4575 2.08689 17.8939 1.89982 18.2785 2.05366L19.25 2.44224L20.2214 2.05366C20.606 1.89982 21.0425 2.08689 21.1963 2.47147C21.3502 2.85606 21.1631 3.29254 20.7785 3.44637L20 3.75779V20.2422L20.7785 20.5537C21.1631 20.7075 21.3502 21.144 21.1963 21.5286C21.0425 21.9131 20.606 22.1002 20.2214 21.9464L19.25 21.5578L18.2785 21.9464C17.8939 22.1002 17.4575 21.9131 17.3036 21.5286C17.1498 21.144 17.3369 20.7075 17.7214 20.5537L18.5 20.2422V3.75779L17.7214 3.44637C17.3369 3.29254 17.1498 2.85606 17.3036 2.47147ZM3 6.75C3 5.33579 4.08579 4.25 5.5 4.25H15.75C16.1642 4.25 16.5 4.58579 16.5 5V19C16.5 19.4142 16.1642 19.75 15.75 19.75H5.5C4.08579 19.75 3 18.6642 3 17.25V6.75ZM8.81464 16.3956C9.20243 16.568 9.63827 16.6541 10.1222 16.6541C10.5199 16.6541 10.8663 16.5994 11.1612 16.4901C11.4595 16.3774 11.7065 16.2299 11.902 16.0476C12.1009 15.862 12.255 15.6631 12.3644 15.451H12.424V16.5H14.1541V11.3892C14.1541 10.8821 14.0613 10.4595 13.8757 10.1215C13.6934 9.7834 13.4515 9.51659 13.1499 9.32104C12.8483 9.12218 12.5152 8.97966 12.1506 8.89348C11.786 8.80731 11.4198 8.76422 11.0519 8.76422C10.5182 8.76422 10.031 8.84377 9.59021 9.00286C9.1494 9.15863 8.77653 9.39396 8.4716 9.70882C8.16668 10.0204 7.94793 10.4082 7.81535 10.8722L9.49575 11.1108C9.58524 10.849 9.75759 10.6219 10.0128 10.4297C10.2713 10.2375 10.621 10.1414 11.0618 10.1414C11.4794 10.1414 11.7993 10.2441 12.0213 10.4496C12.2434 10.6551 12.3544 10.9451 12.3544 11.3196V11.3494C12.3544 11.5218 12.2898 11.6494 12.1605 11.7323C12.0346 11.8118 11.8324 11.8715 11.554 11.9112C11.2756 11.9477 10.9127 11.9891 10.4652 12.0355C10.094 12.0753 9.73439 12.1399 9.38637 12.2294C9.04168 12.3156 8.73178 12.4432 8.45669 12.6122C8.18159 12.7813 7.9645 13.0066 7.80541 13.2884C7.64632 13.5701 7.56677 13.9264 7.56677 14.3573C7.56677 14.8577 7.6778 15.2787 7.89987 15.62C8.12525 15.9614 8.43017 16.22 8.81464 16.3956ZM11.5291 15.1179C11.264 15.2604 10.9508 15.3317 10.5895 15.3317C10.215 15.3317 9.90673 15.2472 9.66478 15.0781C9.42283 14.9091 9.30186 14.6589 9.30186 14.3274C9.30186 14.0954 9.36317 13.9065 9.48581 13.7607C9.60844 13.6115 9.77582 13.4955 9.98794 13.4127C10.2001 13.3298 10.4404 13.2701 10.7088 13.2337C10.8281 13.2171 10.969 13.1972 11.1314 13.174C11.2938 13.1508 11.4579 13.1243 11.6236 13.0945C11.7893 13.0646 11.9385 13.0298 12.071 12.9901C12.2069 12.9503 12.303 12.9072 12.3594 12.8608V13.7607C12.3594 14.0424 12.2865 14.3026 12.1406 14.5412C11.9981 14.7798 11.7943 14.9721 11.5291 15.1179Z" fill="currentColor"/>
</svg>
