<svg xmlns="http://www.w3.org/2000/svg" viewBox="0 0 32 32" fill="none" stroke-width="1.5" stroke="currentColor">
<path d="M19.6533 12L19.192 24M12.808 24L12.3467 12M25.6373 7.72002C26.0933 7.78936 26.5467 7.86269 27 7.94136M25.6373 7.72136L24.2133 26.2307C24.1552 26.9843 23.8148 27.6882 23.26 28.2017C22.7053 28.7151 21.9772 29.0002 21.2213 29H10.7787C10.0228 29.0002 9.2947 28.7151 8.73997 28.2017C8.18525 27.6882 7.84479 26.9843 7.78667 26.2307L6.36267 7.72002M25.6373 7.72002C24.0985 7.48738 22.5517 7.31082 21 7.19069M5 7.94002C5.45333 7.86136 5.90667 7.78802 6.36267 7.72002M6.36267 7.72002C7.90151 7.48738 9.44831 7.31082 11 7.19069M21 7.19069V5.96936C21 4.39602 19.7867 3.08402 18.2133 3.03469C16.7382 2.98754 15.2618 2.98754 13.7867 3.03469C12.2133 3.08402 11 4.39736 11 5.96936V7.19069M21 7.19069C17.6716 6.93346 14.3284 6.93346 11 7.19069" stroke-linecap="round" stroke-linejoin="round"/>
</svg>
