<svg width="32" height="32" viewBox="0 0 32 32" fill="none" xmlns="http://www.w3.org/2000/svg">
<path d="M15 27.5H9.00001V32L12 30L15 32V27.5Z" fill="black"/>
<path d="M28 28C28 27.4477 27.5523 27 27 27C26.4477 27 26 27.4477 26 28V29H17.5C16.9477 29 16.5 29.4477 16.5 30C16.5 30.5523 16.9477 31 17.5 31H28C28.5523 31 29 30.5523 29 30C29 29.4477 28.5523 29 28 29V28Z" fill="black"/>
<path fill-rule="evenodd" clip-rule="evenodd" d="M5.00001 3.5C5.00001 2.97725 5.16989 2.61933 5.39461 2.39461C5.61933 2.16989 5.97725 2 6.50001 2H8.00001V24L6.5 24C5.96599 24 5.45748 24.0989 5.00001 24.2947V3.5ZM3.00001 27.4912L3.00001 27.5057C3.00022 28.4822 3.3328 29.3731 3.98287 30.022C4.63315 30.671 5.52508 31.0019 6.50192 31C7.0542 30.9989 7.50106 30.5504 7.5 29.9981C7.49895 29.4458 7.05038 28.9989 6.49809 29C5.97971 29.001 5.62164 28.8319 5.39573 28.6064C5.16981 28.3809 5.00001 28.0232 5.00001 27.5048V27.4928C5.00119 26.9767 5.17008 26.6209 5.39421 26.3963C5.61978 26.1703 5.97842 26 6.5 26H25.5C26.4773 26 27.3693 25.6699 28.0196 25.0196C28.6699 24.3693 29 23.4772 29 22.5V3.5C29 2.52275 28.6699 1.63067 28.0196 0.980393C27.3693 0.330114 26.4773 0 25.5 0H6.50001C5.52276 0 4.63068 0.330114 3.9804 0.980393C3.33012 1.63067 3.00001 2.52275 3.00001 3.5V27.4912ZM14 10C13.4477 10 13 10.4477 13 11C13 11.5523 13.4477 12 14 12H22C22.5523 12 23 11.5523 23 11C23 10.4477 22.5523 10 22 10H14ZM13 15C13 14.4477 13.4477 14 14 14H22C22.5523 14 23 14.4477 23 15C23 15.5523 22.5523 16 22 16H14C13.4477 16 13 15.5523 13 15Z" fill="black"/>
<path d="M14 10C13.4477 10 13 10.4477 13 11C13 11.5523 13.4477 12 14 12H22C22.5523 12 23 11.5523 23 11C23 10.4477 22.5523 10 22 10H14Z" fill="white"/>
<path d="M14 14C13.4477 14 13 14.4477 13 15C13 15.5523 13.4477 16 14 16H22C22.5523 16 23 15.5523 23 15C23 14.4477 22.5523 14 22 14H14Z" fill="white"/>
<path d="M5.39461 2.39461C5.16989 2.61933 5 2.97725 5 3.5V24.2947C5.45747 24.0989 5.96598 24 6.49999 24L8 24V2H6.5C5.97725 2 5.61933 2.16989 5.39461 2.39461Z" fill="white"/>
<path d="M6.49999 26C5.97842 26 5.61978 26.1703 5.3942 26.3963C5.17008 26.6209 5.00118 26.9767 5 27.4928V27.5048C5 28.0232 5.16981 28.3809 5.39572 28.6064C5.62164 28.8319 5.97971 29.001 6.49809 29C7.05037 28.9989 7.49894 29.4458 7.5 29.9981L8.99999 30L9 27.5H15L15 30H16.5C16.5 29.4477 16.9477 29 17.5 29H26V28C26 27.4477 26.4477 27 27 27V25.706C26.5425 25.9015 26.0339 26 25.5 26H6.49999Z" fill="white"/>
</svg>
