<svg width="24" height="24" viewBox="0 0 24 24" fill="none" xmlns="http://www.w3.org/2000/svg">
<g clip-path="url(#clip0_56_96)">
<rect x="3" y="1" width="16.25" height="21.25" fill="white"/>
<path fill-rule="evenodd" clip-rule="evenodd" d="M3 1H20V18H3V1ZM6.5 9.5L11.5 4.5L16.5 9.5L11.5 14.5L6.5 9.5Z" fill="#727272"/>
<path d="M6.75 20.75V22.75L8.5 21.75L10.25 22.75V20.75L8.5 21.75L6.75 20.75Z" fill="black"/>
<path fill-rule="evenodd" clip-rule="evenodd" d="M10.5 0.75L2.75 8.5V10.5L10.5 18.25H12.5L20.25 10.5V8.5L12.5 0.75H10.5ZM6.5 9.5L11.5 4.5L16.5 9.5L11.5 14.5L6.5 9.5Z" fill="black"/>
<path d="M20.25 22.25H19.25M2.75 20.2548C2.75 19.1298 3.47901 18.25 4.75 18.25H10.5M2.75 20.2548C2.75 21.3238 3.30272 22.0278 4.25 22.2057M2.75 20.2548V10.5M19.25 22.25V20.5M19.25 22.25H12.75M6.75 20.75V22.75L8.5 21.75M6.75 20.75L8.5 21.75M6.75 20.75H10.25M8.5 21.75L10.25 22.75V20.75M8.5 21.75L10.25 20.75M10.5 0.75L2.75 8.5M10.5 0.75H4.75C3.65 0.75 2.75 1.65 2.75 2.75V8.5M10.5 0.75H12.5M2.75 8.5V10.5M12.5 0.75L20.25 8.5M12.5 0.75H20.25V8.5M20.25 8.5V10.5M2.75 10.5L10.5 18.25M10.5 18.25H12.5M20.25 10.5V18.25H12.5M20.25 10.5L12.5 18.25M11.5 4.5L6.5 9.5L11.5 14.5L16.5 9.5L11.5 4.5Z" stroke="black" stroke-width="1.5" stroke-linecap="round"/>
</g>
<defs>
<clipPath id="clip0_56_96">
<rect width="24" height="24" fill="white"/>
</clipPath>
</defs>
</svg>
