<svg width="160" height="48" viewBox="0 0 160 48" fill="none" xmlns="http://www.w3.org/2000/svg">
<path d="M58.7727 22.9091V33H53.9318V15.5455H58.5455V18.625H58.75C59.1364 17.6098 59.7841 16.8068 60.6932 16.2159C61.6023 15.6174 62.7045 15.3182 64 15.3182C65.2121 15.3182 66.2689 15.5833 67.1705 16.1136C68.072 16.6439 68.7727 17.4015 69.2727 18.3864C69.7727 19.3636 70.0227 20.5303 70.0227 21.8864V33H65.1818V22.75C65.1894 21.6818 64.9167 20.8485 64.3636 20.25C63.8106 19.6439 63.0492 19.3409 62.0795 19.3409C61.428 19.3409 60.8523 19.4811 60.3523 19.7614C59.8598 20.0417 59.4735 20.4508 59.1932 20.9886C58.9205 21.5189 58.7803 22.1591 58.7727 22.9091ZM81.7244 33.3409C79.9593 33.3409 78.4328 32.9659 77.1449 32.2159C75.8646 31.4583 74.8759 30.4053 74.179 29.0568C73.482 27.7008 73.1335 26.1288 73.1335 24.3409C73.1335 22.5379 73.482 20.9621 74.179 19.6136C74.8759 18.2576 75.8646 17.2045 77.1449 16.4545C78.4328 15.697 79.9593 15.3182 81.7244 15.3182C83.4896 15.3182 85.0123 15.697 86.2926 16.4545C87.5805 17.2045 88.5729 18.2576 89.2699 19.6136C89.9669 20.9621 90.3153 22.5379 90.3153 24.3409C90.3153 26.1288 89.9669 27.7008 89.2699 29.0568C88.5729 30.4053 87.5805 31.4583 86.2926 32.2159C85.0123 32.9659 83.4896 33.3409 81.7244 33.3409ZM81.7472 29.5909C82.5502 29.5909 83.2206 29.3636 83.7585 28.9091C84.2964 28.447 84.7017 27.8182 84.9744 27.0227C85.2547 26.2273 85.3949 25.322 85.3949 24.3068C85.3949 23.2917 85.2547 22.3864 84.9744 21.5909C84.7017 20.7955 84.2964 20.1667 83.7585 19.7045C83.2206 19.2424 82.5502 19.0114 81.7472 19.0114C80.9366 19.0114 80.2547 19.2424 79.7017 19.7045C79.1563 20.1667 78.7434 20.7955 78.4631 21.5909C78.1903 22.3864 78.054 23.2917 78.054 24.3068C78.054 25.322 78.1903 26.2273 78.4631 27.0227C78.7434 27.8182 79.1563 28.447 79.7017 28.9091C80.2547 29.3636 80.9366 29.5909 81.7472 29.5909ZM102.747 15.5455V19.1818H92.2358V15.5455H102.747ZM94.6222 11.3636H99.4631V27.6364C99.4631 28.0833 99.5313 28.4318 99.6676 28.6818C99.804 28.9242 99.9934 29.0947 100.236 29.1932C100.486 29.2917 100.774 29.3409 101.099 29.3409C101.327 29.3409 101.554 29.322 101.781 29.2841C102.009 29.2386 102.183 29.2045 102.304 29.1818L103.065 32.7841C102.823 32.8598 102.482 32.947 102.043 33.0455C101.603 33.1515 101.069 33.2159 100.44 33.2386C99.2737 33.2841 98.2509 33.1288 97.3722 32.7727C96.5009 32.4167 95.8229 31.8636 95.3381 31.1136C94.8532 30.3636 94.6146 29.4167 94.6222 28.2727V11.3636ZM113.668 33.3409C111.872 33.3409 110.327 32.9773 109.031 32.25C107.743 31.5152 106.751 30.4773 106.054 29.1364C105.357 27.7879 105.009 26.1932 105.009 24.3523C105.009 22.5568 105.357 20.9811 106.054 19.625C106.751 18.2689 107.732 17.2121 108.997 16.4545C110.27 15.697 111.762 15.3182 113.474 15.3182C114.626 15.3182 115.698 15.5038 116.69 15.875C117.69 16.2386 118.562 16.7879 119.304 17.5227C120.054 18.2576 120.637 19.1818 121.054 20.2955C121.471 21.4015 121.679 22.697 121.679 24.1818V25.5114H106.94V22.5114H117.122C117.122 21.8144 116.971 21.197 116.668 20.6591C116.365 20.1212 115.944 19.7008 115.406 19.3977C114.876 19.0871 114.259 18.9318 113.554 18.9318C112.819 18.9318 112.168 19.1023 111.599 19.4432C111.039 19.7765 110.599 20.2273 110.281 20.7955C109.963 21.3561 109.8 21.9811 109.793 22.6705V25.5227C109.793 26.3864 109.952 27.1326 110.27 27.7614C110.596 28.3902 111.054 28.875 111.645 29.2159C112.236 29.5568 112.937 29.7273 113.747 29.7273C114.285 29.7273 114.777 29.6515 115.224 29.5C115.671 29.3485 116.054 29.1212 116.372 28.8182C116.69 28.5152 116.933 28.1439 117.099 27.7045L121.577 28C121.349 29.0758 120.884 30.0152 120.179 30.8182C119.482 31.6136 118.58 32.2348 117.474 32.6818C116.376 33.1212 115.107 33.3409 113.668 33.3409ZM139.361 20.5227L134.929 20.7955C134.853 20.4167 134.69 20.0758 134.44 19.7727C134.19 19.4621 133.861 19.2159 133.452 19.0341C133.05 18.8447 132.569 18.75 132.009 18.75C131.259 18.75 130.626 18.9091 130.111 19.2273C129.596 19.5379 129.338 19.9545 129.338 20.4773C129.338 20.8939 129.505 21.2462 129.838 21.5341C130.171 21.822 130.743 22.053 131.554 22.2273L134.713 22.8636C136.41 23.2121 137.675 23.7727 138.509 24.5455C139.342 25.3182 139.759 26.3333 139.759 27.5909C139.759 28.7348 139.421 29.7386 138.747 30.6023C138.08 31.4659 137.164 32.1402 135.997 32.625C134.838 33.1023 133.501 33.3409 131.986 33.3409C129.675 33.3409 127.834 32.8598 126.463 31.8977C125.099 30.928 124.3 29.6098 124.065 27.9432L128.827 27.6932C128.971 28.3977 129.319 28.9356 129.872 29.3068C130.425 29.6705 131.134 29.8523 131.997 29.8523C132.846 29.8523 133.527 29.6894 134.043 29.3636C134.565 29.0303 134.83 28.6023 134.838 28.0795C134.83 27.6402 134.645 27.2803 134.281 27C133.918 26.7121 133.357 26.4924 132.599 26.3409L129.577 25.7386C127.872 25.3977 126.603 24.8068 125.77 23.9659C124.944 23.125 124.531 22.053 124.531 20.75C124.531 19.6288 124.834 18.6629 125.44 17.8523C126.054 17.0417 126.914 16.4167 128.02 15.9773C129.134 15.5379 130.437 15.3182 131.929 15.3182C134.134 15.3182 135.868 15.7841 137.134 16.7159C138.406 17.6477 139.149 18.9167 139.361 20.5227ZM142.716 33V30.1136L151.261 19.5341V19.4091H143.011V15.5455H157.091V18.6932L149.068 29.0114V29.1364H157.386V33H142.716Z" fill="#00F0FF"/>
<g clip-path="url(#clip0_56_153)">
<path fill-rule="evenodd" clip-rule="evenodd" d="M14 19L23 10L32 19L23 28L14 19Z" fill="#00F0FF"/>
<path d="M13.5 41.5V45.5L17 43.5L20.5 45.5V41.5L17 43.5L13.5 41.5Z" fill="#4464B7"/>
<path d="M33 1.5L40.5 9V1.5H33Z" fill="#4464B7"/>
<path d="M40.5 36.5V29L33 36.5H40.5Z" fill="#4464B7"/>
<path d="M5.5 40.5096C5.5 38.2596 6.95802 36.5 9.5 36.5H13L5.5 29V40.5096Z" fill="#4464B7"/>
<path d="M9.5 1.5C7.3 1.5 5.5 3.3 5.5 5.5V9L13 1.5H9.5Z" fill="#4464B7"/>
<path fill-rule="evenodd" clip-rule="evenodd" d="M9.37557 3.00311L7.00311 5.37557C7.06679 4.10208 8.10208 3.06679 9.37557 3.00311ZM13.6213 3L7 9.62132V28.3787L13.6213 35H32.3787L39 28.3787V9.62132L32.3787 3H13.6213ZM36.6213 3L39 5.37868V3H36.6213ZM39 32.6213L36.6213 35H39V32.6213ZM9.37974 35.0011L7 32.6213V35.5236C7.70856 35.1954 8.51149 35.0162 9.37974 35.0011ZM4 40.5096V5.5C4 2.47157 6.47157 0 9.5 0H42V38H9.5C8.59264 38 8.00356 38.3038 7.63638 38.6919C7.25703 39.0929 7 39.7066 7 40.5096C7 41.3217 7.20782 41.8641 7.47621 42.2112C7.73671 42.5482 8.14339 42.8181 8.77682 42.9371C9.59102 43.09 10.1271 43.8739 9.97424 44.6881C9.82135 45.5023 9.03738 46.0384 8.22318 45.8855C6.96206 45.6487 5.86873 45.0368 5.10288 44.0463C4.3449 43.0659 4 41.8354 4 40.5096ZM38.5 39.5C39.3284 39.5 40 40.1716 40 41V43H40.5C41.3284 43 42 43.6716 42 44.5C42 45.3284 41.3284 46 40.5 46H25.5C24.6716 46 24 45.3284 24 44.5C24 43.6716 24.6716 43 25.5 43H37V41C37 40.1716 37.6716 39.5 38.5 39.5ZM12 40H22V48.0848L17 45.2276L12 48.0848V40Z" fill="#4464B7"/>
</g>
<defs>
<clipPath id="clip0_56_153">
<rect width="48" height="48" fill="white"/>
</clipPath>
</defs>
</svg>
